<?xml version="1.0" encoding="UTF-8" standalone="no"?>
<!-- Generator: Adobe Illustrator 14.0.0, SVG Export Plug-In . SVG Version: 6.00 Build 43363)  -->

<svg
   version="1.1"
   x="0px"
   y="0px"
   width="71.042999"
   height="60.856998"
   viewBox="0 0 71.043001 60.857"
   enable-background="new 0 0 1556.038 1776.033"
   xml:space="preserve"
   id="svg863"
   sodipodi:docname="pics.svg"
   inkscape:version="1.4.3 (0d15f75042, 2025-12-25)"
   xmlns:inkscape="http://www.inkscape.org/namespaces/inkscape"
   xmlns:sodipodi="http://sodipodi.sourceforge.net/DTD/sodipodi-0.dtd"
   xmlns="http://www.w3.org/2000/svg"
   xmlns:svg="http://www.w3.org/2000/svg"><defs
   id="defs863" /><sodipodi:namedview
   id="namedview863"
   pagecolor="#505050"
   bordercolor="#eeeeee"
   borderopacity="1"
   inkscape:showpageshadow="0"
   inkscape:pageopacity="0"
   inkscape:pagecheckerboard="0"
   inkscape:deskcolor="#505050"
   inkscape:zoom="3.9274834"
   inkscape:cx="36.6647"
   inkscape:cy="36.02816"
   inkscape:window-width="1920"
   inkscape:window-height="1080"
   inkscape:window-x="0"
   inkscape:window-y="0"
   inkscape:window-maximized="1"
   inkscape:current-layer="g50" />




















<g
   id="Layer_40"
   transform="translate(-291.027,-14.679)">
	<g
   id="g50">
		
		
		<path
   id="circle50"
   style="fill:#010101"
   d="m 335.10601,51.574001 a 8.5570002,8.5570002 0 0 1 -8.557,8.557 8.5570002,8.5570002 0 0 1 -8.557,-8.557 8.5570002,8.5570002 0 0 1 8.557,-8.557 8.5570002,8.5570002 0 0 1 8.557,8.557 z M 355.518,28.753 h -13.776 l -3.528,-10.862 c -0.628,-1.833 -2.482,-3.179 -4.422,-3.212 h -14.488 c -1.937,0.033 -3.791,1.379 -4.422,3.212 l -3.528,10.862 h -13.772 c -3.621,0 -6.555,2.932 -6.555,6.554 v 33.675 c 0,3.617 2.935,6.552 6.555,6.554 h 57.937 c 3.617,-0.002 6.551,-2.934 6.551,-6.554 V 35.308 c -10e-4,-3.622 -2.935,-6.555 -6.552,-6.555 z m -45.613,22.82 c 0.017,-9.19 7.453,-16.625 16.644,-16.639 9.188,0.015 16.625,7.449 16.641,16.639 -0.016,9.192 -7.453,16.626 -16.641,16.642 -9.192,-0.016 -16.628,-7.45 -16.644,-16.642 z" />
	</g>
</g>


















































</svg>
