<?xml version="1.0" encoding="UTF-8" standalone="no"?>
<!-- Generator: Adobe Illustrator 14.0.0, SVG Export Plug-In . SVG Version: 6.00 Build 43363)  -->

<svg
   version="1.1"
   x="0px"
   y="0px"
   width="52.208"
   height="59.986"
   viewBox="0 0 52.208001 59.986001"
   enable-background="new 0 0 1556.038 1776.033"
   xml:space="preserve"
   id="svg863"
   sodipodi:docname="power.svg"
   inkscape:version="1.4.3 (0d15f75042, 2025-12-25)"
   xmlns:inkscape="http://www.inkscape.org/namespaces/inkscape"
   xmlns:sodipodi="http://sodipodi.sourceforge.net/DTD/sodipodi-0.dtd"
   xmlns="http://www.w3.org/2000/svg"
   xmlns:svg="http://www.w3.org/2000/svg"><defs
   id="defs863" /><sodipodi:namedview
   id="namedview863"
   pagecolor="#505050"
   bordercolor="#eeeeee"
   borderopacity="1"
   inkscape:showpageshadow="0"
   inkscape:pageopacity="0"
   inkscape:pagecheckerboard="0"
   inkscape:deskcolor="#505050"
   inkscape:zoom="9.1653106"
   inkscape:cx="13.965702"
   inkscape:cy="28.531494"
   inkscape:window-width="1904"
   inkscape:window-height="1024"
   inkscape:window-x="0"
   inkscape:window-y="0"
   inkscape:window-maximized="1"
   inkscape:current-layer="svg863" />
<g
   id="power"
   transform="translate(-28.884,-13.852)">
	<g
   id="g2">
		
		<path
   id="path2"
   d="m 52.94,46.609 h 4.094 c 0.283,0 0.512,-0.229 0.512,-0.512 V 14.364 c 0,-0.283 -0.229,-0.512 -0.512,-0.512 H 52.94 c -0.283,0 -0.512,0.229 -0.512,0.512 v 31.733 c 0,0.284 0.229,0.512 0.512,0.512 z M 67.429,24.782 c -0.25,-0.134 -0.559,-0.042 -0.694,0.206 l -1.955,3.598 c -0.064,0.119 -0.08,0.259 -0.041,0.39 0.039,0.13 0.127,0.239 0.247,0.304 6.777,3.681 10.987,10.752 10.987,18.455 0,11.572 -9.414,20.986 -20.985,20.986 -11.571,0 -20.986,-9.414 -20.986,-20.986 0,-7.702 4.209,-14.773 10.985,-18.454 0.249,-0.135 0.34,-0.446 0.205,-0.694 l -1.954,-3.598 c -0.065,-0.12 -0.174,-0.208 -0.304,-0.247 -0.131,-0.039 -0.27,-0.024 -0.39,0.041 -8.425,4.577 -13.66,13.372 -13.66,22.951 0,14.394 11.71,26.104 26.104,26.104 14.393,0 26.104,-11.71 26.104,-26.104 -0.001,-9.58 -5.236,-18.375 -13.663,-22.952 z" />
	</g>
</g>






































































</svg>
