<?xml version="1.0" encoding="UTF-8" standalone="no"?>
<!-- Generator: Adobe Illustrator 14.0.0, SVG Export Plug-In . SVG Version: 6.00 Build 43363)  -->

<svg
   version="1.1"
   x="0px"
   y="0px"
   width="85.823997"
   height="62.851002"
   viewBox="0 0 85.823999 62.851003"
   enable-background="new 0 0 1556.038 1776.033"
   xml:space="preserve"
   id="svg863"
   sodipodi:docname="settings.svg"
   inkscape:version="1.4.3 (0d15f75042, 2025-12-25)"
   xmlns:inkscape="http://www.inkscape.org/namespaces/inkscape"
   xmlns:sodipodi="http://sodipodi.sourceforge.net/DTD/sodipodi-0.dtd"
   xmlns="http://www.w3.org/2000/svg"
   xmlns:svg="http://www.w3.org/2000/svg"><defs
   id="defs863" /><sodipodi:namedview
   id="namedview863"
   pagecolor="#505050"
   bordercolor="#eeeeee"
   borderopacity="1"
   inkscape:showpageshadow="0"
   inkscape:pageopacity="0"
   inkscape:pagecheckerboard="0"
   inkscape:deskcolor="#505050"
   inkscape:zoom="5.0753027"
   inkscape:cx="51.819569"
   inkscape:cy="27.486045"
   inkscape:window-width="1904"
   inkscape:window-height="1024"
   inkscape:window-x="0"
   inkscape:window-y="0"
   inkscape:window-maximized="1"
   inkscape:current-layer="svg863" />




<g
   id="Layer_32"
   transform="translate(-147.556,-13.682)">
	<g
   id="g8">
		
		<path
   id="path8"
   d="m 164.195,42.534 c 0.125,-1.974 1.748,-3.538 3.743,-3.538 h 6.599 c 1.993,0 3.615,1.564 3.741,3.538 0.041,0.661 0.592,1.181 1.255,1.181 h 21.881 c 0.661,0 1.21,-0.52 1.252,-1.181 0.129,-1.974 1.749,-3.538 3.743,-3.538 h 6.475 c 1.996,0 3.616,1.564 3.742,3.538 0.042,0.661 0.591,1.181 1.254,1.181 l 15.5,-0.003 -0.002,-7.041 c 0,-3.473 -2.814,-6.285 -6.286,-6.285 V 30.384 H 208.891 V 30.293 23.74 c 0,-5.555 -4.5,-10.058 -10.057,-10.058 H 182.28 c -5.557,0 -10.057,4.502 -10.06,10.058 v 6.552 0.091 l -18.368,0.002 c -3.474,0 -6.289,2.812 -6.289,6.285 l -0.007,7.04 15.381,10e-4 c 0.667,0 1.216,-0.516 1.258,-1.177 z m 14.523,-12.151 v -0.091 -6.63 c 0.005,-1.388 1.127,-2.512 2.515,-2.514 l 18.653,-0.003 c 1.388,0.005 2.51,1.128 2.513,2.517 l 0.001,6.63 v 0.091 z m 38.306,19.671 c -0.236,0.236 -0.369,0.559 -0.369,0.89 v 1.888 c -0.004,2.078 -1.689,3.764 -3.772,3.769 h -6.472 c -2.083,-0.005 -3.768,-1.691 -3.774,-3.769 v -1.888 c 0,-0.336 -0.131,-0.652 -0.367,-0.89 -0.237,-0.238 -0.552,-0.369 -0.89,-0.369 h -21.815 c -0.331,0 -0.656,0.133 -0.89,0.369 -0.233,0.236 -0.366,0.559 -0.366,0.89 v 1.888 c -0.006,2.078 -1.692,3.764 -3.774,3.769 h -6.473 c -2.081,-0.005 -3.768,-1.691 -3.773,-3.769 v -1.888 c 0,-0.336 -0.128,-0.652 -0.366,-0.89 -0.238,-0.238 -0.554,-0.369 -0.89,-0.369 l -15.465,-0.001 -0.001,20.564 c 0,3.471 2.814,6.285 6.288,6.285 h 73.239 c 3.471,0 6.282,-2.814 6.282,-6.285 l 0.004,-20.555 -15.467,-0.008 c -0.33,10e-4 -0.654,0.134 -0.889,0.369 z" />
	</g>
</g>


































































</svg>
